<?xml version="1.0" standalone="no"?>
<!DOCTYPE svg PUBLIC "-//W3C//DTD SVG 20010904//EN"
 "http://www.w3.org/TR/2001/REC-SVG-20010904/DTD/svg10.dtd">
<svg version="1.0" xmlns="http://www.w3.org/2000/svg"
 width="155.000000pt" height="155.000000pt" viewBox="0 0 155.000000 155.000000"
 preserveAspectRatio="xMidYMid meet">
<metadata>
Created by potrace 1.14, written by Peter Selinger 2001-2017
</metadata>
<g transform="translate(0.000000,155.000000) scale(0.100000,-0.100000)"
fill="#000000" stroke="none">
<path d="M179 1419 c-41 -9 -79 -38 -103 -79 -19 -31 -19 -58 -19 -557 l0
-524 29 -41 c17 -25 43 -46 64 -54 49 -17 1191 -20 1241 -2 47 16 87 65 94
113 3 22 5 268 3 547 -3 497 -3 507 -24 535 -12 15 -36 37 -54 47 -31 19 -60
19 -616 20 -321 1 -597 -2 -615 -5z"/>
</g>
</svg>
